<svg xmlns="http://www.w3.org/2000/svg" xmlns:xlink="http://www.w3.org/1999/xlink" id="Capa_1" x="0px" y="0px" viewBox="0 0 5453.3 1666.8" style="enable-background:new 0 0 5453.3 1666.8;" xml:space="preserve">
<style type="text/css">
	.st0{fill:#48A753;}
	.st1{fill:#FFFFFF;}
	.st2{fill:none;}
	.st3{fill:#110F11;}
	.st4{clip-path:url(#SVGID_2_);fill:#F0F2EF;}
</style>
<g>
	<g>
		<path class="st0" d="M1523.4,1612.9H161.9c-54.5,0-98.7-44.2-98.7-98.6V152.6c0-54.5,44.2-98.7,98.7-98.7h1361.6    c54.5,0,98.6,44.2,98.6,98.7v1361.6C1622.1,1568.7,1577.9,1612.9,1523.4,1612.9"></path>
		<path class="st1" d="M1294.6,699.6c0-26.8-21.4-48.4-47.9-48.4H438.6c-26.4,0-47.9,21.7-47.9,48.4c0,26.8,21.4,48.4,47.9,48.4    h808.1C1273.2,748.1,1294.6,726.4,1294.6,699.6"></path>
		<path class="st1" d="M1210.8,432.7c0-26.8-21.4-48.4-47.9-48.4H800.1c-26.4,0-47.8,21.7-47.8,48.4c0,26.8,21.4,48.4,47.8,48.4    H1163C1189.4,481.1,1210.8,459.4,1210.8,432.7"></path>
		<path class="st1" d="M848,1234.2c0,26.8,21.4,48.4,47.9,48.4h350.9c26.4,0,47.9-21.7,47.9-48.4c0-26.8-21.4-48.4-47.9-48.4H895.8    C869.4,1185.7,848,1207.4,848,1234.2"></path>
		<path class="st1" d="M981.6,967.2c0-26.8-21.4-48.4-47.9-48.4H570.8c-26.4,0-47.8,21.7-47.8,48.4c0,26.8,21.4,48.4,47.8,48.4    h362.9C960.1,1015.6,981.6,994,981.6,967.2"></path>
	</g>
	<g>
		<path class="st3" d="M2200.4,446c36,14,69.6,35.3,101,64l-65,75c-24.7-20.6-49.5-35.6-74.5-45c-25-9.3-51.8-14-80.5-14    c-32,0-57.8,7.2-77.5,21.5c-19.7,14.3-29.5,34.5-29.5,60.5c0,17.3,3.8,31.7,11.5,43c7.7,11.3,21.5,22,41.5,32c20,10,49.6,21,89,33    c68,21.3,119.1,47.8,153.4,79.5c34.3,31.7,51.5,77.8,51.5,138.4c0,41.3-10.5,78-31.5,110c-21,32-51.2,57-90.5,75    c-39.3,18-86,27-139.9,27c-52.7,0-99.8-8.5-141.4-25.5c-41.7-17-77.5-40.1-107.5-69.5l68-76c26.6,22.7,54.3,39.8,83,51.5    c28.6,11.7,60.3,17.5,95,17.5c38,0,68.6-9,92-27c23.3-18,35-43.3,35-76c0-20-4-36.5-12-49.5c-8-13-21.7-24.6-41-35    c-19.3-10.3-47.3-21.1-84-32.5c-73.3-22.6-126.3-50-158.9-82c-32.7-32-49-74-49-126c0-38,10-71.3,30-100c20-28.6,47.8-51,83.5-67    c35.6-16,76.1-24,121.5-24C2122.1,425,2164.4,432,2200.4,446z"></path>
		<path class="st3" d="M2811.1,905.8h-331.9c4,51.3,17.3,88,40,110c22.6,22,52.6,33,90,33c23.3,0,45.3-3.8,66-11.5    c20.6-7.7,42.6-19.5,66-35.5l53,73c-58.6,47.3-124,71-195.9,71c-80.6,0-142.8-24.6-186.4-74c-43.7-49.3-65.5-116.6-65.5-201.9    c0-54,9.3-102.5,28-145.4c18.6-43,45.6-76.6,81-101c35.3-24.3,77.3-36.5,126-36.5c74,0,131.3,23.5,171.9,70.5    c40.6,47,61,112.5,61,196.4C2814.1,860.5,2813.1,877.9,2811.1,905.8z M2687.2,816.9c0-92.6-34.3-138.9-103-138.9    c-31.3,0-55.8,11.5-73.5,34.5c-17.7,23-28.2,59.8-31.5,110.5h207.9V816.9z"></path>
		<path class="st3" d="M3182,1105.8c-18.7,13.3-39.5,23.3-62.5,30c-23,6.7-46.5,10-70.5,10c-52-0.7-91.5-15.5-118.5-44.5    c-27-29-40.5-71.8-40.5-128.5V693.9h-83v-92h83V485l128-15V602h123l-13,92h-110v275.9c0,26,4.5,44.7,13.5,56    c9,11.3,23.1,17,42.5,17c19.3,0,40.3-6.3,63-19L3182,1105.8z"></path>
		<path class="st3" d="M3625.8,659.9c32,48.7,48,117,48,204.9c0,54.7-8.2,103.1-24.5,145.4c-16.3,42.3-40.3,75.5-72,99.5    c-31.7,24-69.1,36-112.5,36c-56,0-100.3-19.3-132.9-58v246.9l-128,14V602h112l7,65c20.6-26.6,44.3-46.6,71-60    c26.6-13.3,54.6-20,84-20C3544.5,587,3593.8,611.3,3625.8,659.9z M3539.8,865.9c0-64.6-8.3-111.3-25-139.9    c-16.7-28.6-41.7-43-75-43c-21.3,0-41.3,6.5-60,19.5c-18.7,13-34.7,30.5-48,52.5v237.9c24.6,36.7,57,55,97,55    C3502.9,1047.8,3539.8,987.2,3539.8,865.9z"></path>
		<path class="st3" d="M4063.6,595l-22,124c-16-4-31.7-6-47-6c-31.3,0-56,11.2-74,33.5c-18,22.3-32.3,56.5-43,102.5v281.9h-128V602    h111l12,104c12.7-38,31-67.1,55-87.5c24-20.3,51.6-30.5,83-30.5C4030,588,4047.6,590.3,4063.6,595z"></path>
		<path class="st3" d="M4524.5,905.8h-331.9c4,51.3,17.3,88,40,110c22.6,22,52.6,33,90,33c23.3,0,45.3-3.8,66-11.5    c20.6-7.7,42.6-19.5,66-35.5l53,73c-58.6,47.3-124,71-195.9,71c-80.6,0-142.8-24.6-186.4-74c-43.7-49.3-65.5-116.6-65.5-201.9    c0-54,9.3-102.5,28-145.4c18.6-43,45.6-76.6,81-101c35.3-24.3,77.3-36.5,126-36.5c74,0,131.3,23.5,171.9,70.5    c40.6,47,61,112.5,61,196.4C4527.5,860.5,4526.5,877.9,4524.5,905.8z M4400.5,816.9c0-92.6-34.3-138.9-103-138.9    c-31.3,0-55.8,11.5-73.5,34.5c-17.7,23-28.2,59.8-31.5,110.5h207.9V816.9z"></path>
		<path class="st3" d="M4947.3,649.9l-50,75c-45.3-28.6-89.6-43-132.9-43c-25.3,0-45,4.8-59,14.5c-14,9.7-21,22.5-21,38.5    c0,12,3,22,9,30c6,8,16.8,15.5,32.5,22.5c15.7,7,38.8,14.8,69.5,23.5c57.3,15.3,99.8,35.7,127.5,61c27.6,25.3,41.5,60.6,41.5,106    c0,52.7-21.3,93.8-64,123.5c-42.7,29.6-95.6,44.5-158.9,44.5c-43.3,0-82.8-6.7-118.5-20c-35.7-13.3-66.5-31.6-92.5-55l64-72    c46,34.7,94,52,143.9,52c28.6,0,51.5-5.7,68.5-17c17-11.3,25.5-27,25.5-47c0-15.3-3.2-27.5-9.5-36.5c-6.3-9-17.7-17-34-24    c-16.3-7-41.8-15.5-76.5-25.5c-54-14.7-93.6-35.1-119-61.5c-25.3-26.3-38-59.1-38-98.5c0-29.3,8.5-55.6,25.5-79    c17-23.3,41-41.6,72-55c31-13.3,66.5-20,106.5-20C4830.7,587,4893.3,608,4947.3,649.9z"></path>
		<path class="st3" d="M5373.1,649.9l-50,75c-45.3-28.6-89.6-43-132.9-43c-25.3,0-45,4.8-59,14.5c-14,9.7-21,22.5-21,38.5    c0,12,3,22,9,30c6,8,16.8,15.5,32.5,22.5c15.7,7,38.8,14.8,69.5,23.5c57.3,15.3,99.8,35.7,127.5,61c27.6,25.3,41.5,60.6,41.5,106    c0,52.7-21.3,93.8-64,123.5c-42.7,29.6-95.6,44.5-158.9,44.5c-43.3,0-82.8-6.7-118.5-20c-35.7-13.3-66.5-31.6-92.5-55l64-72    c46,34.7,94,52,143.9,52c28.6,0,51.5-5.7,68.5-17c17-11.3,25.5-27,25.5-47c0-15.3-3.2-27.5-9.5-36.5c-6.3-9-17.7-17-34-24    c-16.3-7-41.8-15.5-76.5-25.5c-54-14.7-93.6-35.1-119-61.5c-25.3-26.3-38-59.1-38-98.5c0-29.3,8.5-55.6,25.5-79    c17-23.3,41-41.6,72-55c31-13.3,66.5-20,106.5-20C5256.5,587,5319.2,608,5373.1,649.9z"></path>
	</g>
</g>
</svg>