<?xml version="1.0" encoding="utf-8"?>
<!-- Generator: Adobe Illustrator 24.1.0, SVG Export Plug-In . SVG Version: 6.00 Build 0)  -->
<svg version="1.1" id="Capa_1" xmlns="http://www.w3.org/2000/svg" xmlns:xlink="http://www.w3.org/1999/xlink" x="0px" y="0px"
	 viewBox="0 0 859 263.5" style="enable-background:new 0 0 859 263.5;" xml:space="preserve">
<style type="text/css">
	.st0{fill:#14120F;}
</style>
<g>
	<g>
		<path class="st0" d="M59.7,115c0,7.9,11.2,14.7,33.6,20.3c7.9,1.7,15,3.8,21.4,6.1c6.4,2.3,12.9,5.7,19.4,10s11.6,10,15.3,17.2
			s5.5,15.4,5.5,24.8c0,19-7.2,33.6-21.4,44c-14.3,10.1-31.9,15.2-52.9,15.2c-38,0-63.8-14.7-77.6-44l41.5-23.3
			c5.7,16,17.7,24,36.2,24c17,0,25.5-5.3,25.5-15.9c0-7.9-11.2-14.7-33.6-20.3c-8.4-2.2-15.5-4.4-21.4-6.7
			c-5.9-2.2-12.3-5.5-19.2-9.8c-6.9-4.3-12.1-9.9-15.7-16.6c-3.6-6.8-5.4-14.7-5.4-23.8c0-18.2,6.7-32.5,20-42.9
			c13.6-10.6,30.3-15.9,50.3-15.9c15,0,28.7,3.4,41,10.2s22.1,16.4,29.2,29l-40.7,22.2c-5.9-12.6-15.8-18.9-29.6-18.9
			c-6.2,0-11.3,1.4-15.3,4.3C61.7,107,59.7,110.6,59.7,115z"/>
		<path class="st0" d="M347.2,174.5H207.9c6.2,23.2,23.5,34.7,52.1,34.7c18.2,0,32-6.2,41.4-18.5l38.4,22.2
			c-18.2,26.4-45.1,39.6-80.6,39.6c-30.6,0-55.1-9.2-73.6-27.7s-27.7-41.8-27.7-69.9c0-27.6,9.1-50.8,27.4-69.5
			c18-18.7,41.4-28.1,70.2-28.1c27.4,0,49.7,9.4,66.9,28.1c17.7,18.7,26.6,41.9,26.6,69.5C349.1,160.1,348.5,166.7,347.2,174.5z
			 M207.1,137.6h94.3c-2.7-12.1-8.2-21.3-16.4-27.7c-8.3-6.4-18.1-9.6-29.4-9.6c-12.8,0-23.4,3.3-31.8,9.8
			C215.4,116.6,209.9,125.7,207.1,137.6z"/>
		<path class="st0" d="M467,62.5v45.8h-41.8v76.9c0,6.4,1.6,11.1,4.8,14c3.2,3,7.9,4.6,14,5c6.2,0.4,13.8,0.3,22.9-0.2v43.2
			c-32.3,3.7-55.3,0.7-68.9-9.1c-13.7-9.7-20.5-27.4-20.5-53v-76.9h-32.2V62.5h32.2V25.2l47.7-14.4v51.8L467,62.5L467,62.5z"/>
		<path class="st0" d="M535.8,62.5v31.8c4.2-11.6,11.3-20.4,21.4-26.4c10.1-6,21.7-9.1,34.7-9.1V112c-14.5-2-27.6,1-39.2,8.9
			c-11.3,7.6-17,20.3-17,38.1v88.3H488V62.5H535.8z"/>
		<path class="st0" d="M754.6,224.4c-18.7,18.7-41.9,28.1-69.5,28.1s-50.8-9.4-69.5-28.1s-28.1-41.8-28.1-69.4
			c0-27.4,9.4-50.4,28.1-69.1c19-19,42.1-28.5,69.5-28.5s50.5,9.5,69.5,28.5s28.5,42,28.5,69.1C783.1,182.3,773.6,205.5,754.6,224.4
			z M649.2,191.5c9.6,9.6,21.6,14.4,35.9,14.4c14.3,0,26.2-4.8,35.9-14.4c9.6-9.6,14.4-21.8,14.4-36.6c0-14.8-4.8-27-14.4-36.6
			c-9.6-9.6-21.6-14.4-35.9-14.4c-14.3,0-26.2,4.8-35.9,14.4c-9.4,9.9-14,22.1-14,36.6C635.2,169.5,640,181.7,649.2,191.5z"/>
		<path class="st0" d="M849,247.4h-47.7V62.5H849V247.4z"/>
	</g>
</g>
</svg>
